<svg xmlns="http://www.w3.org/2000/svg" viewBox="-48 655 140 140">
  <rect width="140" height="140" x="-48" y="655" fill="#000" rx="30" ry="30" />
  <path fill="#fff"
    d="M22.2 767.5q-8.3 0-14.4-2.8-6.1-3-9.5-8A22 22 0 0 1-5 744.3H8.1q0 5.3 3.8 8.4 3.9 3 10.6 3 6.1 0 9.8-3 3.6-3 3.6-8.3 0-4.5-2.5-7.6-2.4-3.3-7.1-4.4l-10-2.8a27 27 0 0 1-14.4-9q-5-6.4-5-15.2 0-7 3-12.1t8.8-8q5.7-3 13.5-2.9 11.8 0 18.7 6.2 6.9 6.1 7 16.4H34.7q0-5-3.3-8t-9.3-3q-5.7 0-9 2.8a10 10 0 0 0-3.2 7.7q0 4.5 2.5 7.7 2.4 3 6.9 4.5l10.3 3q9.3 2.4 14.4 8.8 5 6.3 5 15.5 0 6.9-3.3 12.3a23 23 0 0 1-9.4 8.2q-6 3-14 2.9" />
</svg>
